<?xml version="1.0" standalone="no"?>
<!DOCTYPE svg PUBLIC "-//W3C//DTD SVG 20010904//EN"
 "http://www.w3.org/TR/2001/REC-SVG-20010904/DTD/svg10.dtd">
<svg version="1.0" xmlns="http://www.w3.org/2000/svg"
 width="600.000000pt" height="600.000000pt" viewBox="0 0 600.000000 600.000000"
 preserveAspectRatio="xMidYMid meet">
<metadata>
Created by potrace 1.11, written by Peter Selinger 2001-2013
</metadata>
<g transform="translate(0.000000,600.000000) scale(0.100000,-0.100000)"
fill="#000000" stroke="none">
<path d="M4413 4492 c-28 -10 -67 -30 -86 -45 -20 -15 -111 -129 -203 -254
-92 -126 -236 -318 -319 -428 -170 -225 -191 -267 -182 -366 17 -195 209 -317
390 -249 30 11 71 36 91 56 71 69 638 833 668 902 46 102 14 249 -69 323 -81
70 -196 95 -290 61z"/>
<path d="M1750 3280 c-181 -31 -430 -108 -491 -152 -45 -32 -94 -104 -109
-158 -27 -97 2 -209 72 -277 104 -100 197 -112 387 -50 175 57 260 72 391 71
98 -1 127 -5 195 -28 216 -74 347 -217 375 -407 14 -96 2 -199 -47 -399 -25
-104 -33 -157 -29 -188 21 -152 139 -256 291 -256 118 0 212 60 261 168 53
118 114 435 114 596 0 415 -215 761 -600 964 -236 123 -524 165 -810 116z"/>
</g>
</svg>
